# xmcd
# 
# Track frame offsets:
#     150
#     8095
#     11632
#     14352
#     18100
#     28285
#     50367
#     80425
#     97150
#     127215
#     155160
#     167055
# 
# Disc length: 2687
# 
# Revision: 1
# Processed by: cddbd v1.5.2PL0 Copyright (c) Steve Scherf et al.
# Submitted via: BonkEnc v1.0.5
# 
DISCID=940a7d0c
DTITLE=女王様 - 俺は女王様
DYEAR=0
DGENRE=Pop
TTITLE0=出勤のテーマ
TTITLE1=逃がさないのテーマ
TTITLE2=隠れているビョーンのテーマ
TTITLE3=すごい!!のテーマ
TTITLE4=Shout to the sunのテーマ
TTITLE5=こ・こ・こ恋の歌
TTITLE6=渚の女王様
TTITLE7=土手を越えて
TTITLE8=女王様物語第2章〜踊る女王様〜
TTITLE9=地球よ
TTITLE10=たにしの留守番
TTITLE11=女王様物語
EXTD=
EXTT0=
EXTT1=
EXTT2=
EXTT3=
EXTT4=
EXTT5=
EXTT6=
EXTT7=
EXTT8=
EXTT9=
EXTT10=
EXTT11=
PLAYORDER=
